<svg xmlns="http://www.w3.org/2000/svg" xml:space="preserve" width="256" height="256" fill="#163133" style="fill-rule:evenodd;clip-rule:evenodd;stroke-linejoin:round;stroke-miterlimit:2" viewBox="0 0 32 32"><path d="M13.297 8H3a1 1 0 0 0-1 1v20a1 1 0 0 0 1 1h26a1 1 0 0 0 1-1V9a1 1 0 0 0-1-1H18.703l4.948-4.241a1 1 0 0 0-1.302-1.518L16 7.683 9.651 2.241a1 1 0 0 0-1.302 1.518L13.297 8ZM28 10v18H4V10h24Zm-7 2.335a1 1 0 0 0-1-1H6a1 1 0 0 0-1 1V26a1 1 0 0 0 1 1h14a1 1 0 0 0 1-1V12.335Zm2 10.854h3a1 1 0 0 0 0-2h-3a1 1 0 0 0 0 2Zm1.5-8.569a2.509 2.509 0 0 0-2.5 2.516 2.51 2.51 0 0 0 2.5 2.516 2.51 2.51 0 0 0 2.5-2.516 2.509 2.509 0 0 0-2.5-2.516Z"/></svg>