<svg xmlns="http://www.w3.org/2000/svg" xml:space="preserve" width="256" height="256" fill="#163133" viewBox="0 0 38.976 38.976"><path d="M38.976.209 35.51.806l-9.12 7.552-7.228-1.276-6.296-1.116L7.07 4.937 3.109 8.313l16.148 7.411-9.66 11.755c-.255.254-.487.506-.691.756l-6.035-2.452L0 28.654l6.453 2.957.271.271-2.038 2.238.931.848 1.998-2.195.78.779 2.719 5.215 2.661-2.666-3.104-6.138c.158-.11.311-.231.448-.373l12.534-9.847.169.168 8.425 16.709 2.96-3.547-1.209-6.192-1.207-6.187-1.593-8.157-.049-.052 7.023-8.408.804-3.868z" style="fill:#163133"/></svg>