<svg xmlns="http://www.w3.org/2000/svg" xml:space="preserve" id="Icons" width="256" height="256" fill="#163133" version="1.1" viewBox="0 0 32 32"><g id="SVGRepo_iconCarrier"><style>.st0{fill:none;stroke:#163133;stroke-width:2;stroke-linecap:round;stroke-linejoin:round;stroke-miterlimit:10}</style><path d="M28.5 5.7 17.5.1c-.3-.1-.6-.1-.9 0l-11 5.6c-.4.2-.6.5-.6.9V9c0 .6.4 1 1 1h22c.6 0 1-.4 1-1V6.6c0-.4-.2-.7-.5-.9zm1.4 10.8c-.2-.3-.5-.5-.9-.5-2.2 0-4.3 1-5.6 2.8l-.9 1.2c-1.1 1.3-2.8 2-4.5 2h-3c-.6 0-1-.4-1-1s.4-1 1-1h1.9c1.6 0 3.1-1.3 3.1-2.9V17c0-.5-.5-1-1-1h-6.1c-3.6 0-6.5 1.6-8.1 4.2l-2.7 4.2c-.2.3-.2.7 0 1l3 5c.1.2.4.4.6.5h.2c.2 0 .4-.1.6-.2 3.8-2.5 8.2-3.8 12.7-3.8 3.3 0 6.3-1.8 7.9-4.7l2.7-4.8c.2-.2.2-.6.1-.9z"/><path d="M26 14.5V12c0-.6-.4-1-1-1h-2c-.6 0-1 .4-1 1v5.3c1.1-1.3 2.4-2.2 4-2.8zm-7-.5v-2c0-.6-.4-1-1-1h-2c-.6 0-1 .4-1 1v2h4zm-7 .1V12c0-.6-.4-1-1-1H9c-.6 0-1 .4-1 1v3c1.2-.5 2.6-.8 4-.9z"/></g></svg>