<svg xmlns="http://www.w3.org/2000/svg" xml:space="preserve" width="256" height="256" fill="#163133" baseProfile="tiny" version="1.2" viewBox="-63 65 128 128"><path d="M60.5 185.6v-47.8H21V130h-2.8v-7.3h-2.3v-10.8h2.6v-5.2h-2.6v-2.3c0-8.3-5.6-15.3-12.9-16.6v-8.3H1.7V69.2H-1v10.4h-1.3v8.3c-7.4 1.3-12.9 8.3-12.9 16.6v2.3h-2.6v5.2h2.6v10.8h-2.3v7.2h-2.8v7.8h-38.3v47.9h-4.5v7.8H65v-7.8l-4.5-.1zm-48.6-73.7v10.8H9.3v-10.8h2.6zm-5.1 0v10.8H4.2v-10.8h2.6zm-5.2 0v10.8H-1v-10.8h2.6zm-5.2 0v10.8h-2.6v-10.8h2.6zm-7.8 0h2.6v10.8h-2.6v-10.8zm-30.4 73.7h-6.5v-24.5h6.5v24.5zm0-29.7h-6.5v-10.4h6.5v10.4zm11.7 29.7h-6.5v-24.5h6.5v24.5zm0-29.7h-6.5v-10.4h6.5v10.4zm10.3 29.7h-6.5v-24.5h6.5v24.5zm0-29.7h-6.5v-10.4h6.5v10.4zm11.7 29.7h-6.5v-24.5h6.5v24.5zm0-29.7h-6.5v-10.4h6.5v10.4zm11.6 29.7H-3v-24.5h6.5v24.5zm0-29.7H-3v-10.4h6.5v10.4zm11.7 29.7H8.7v-24.5h6.5v24.5zm0-29.7H8.7v-10.4h6.5v10.4zm11.6 29.7h-6.5v-24.5h6.5v24.5zm0-29.7h-6.5v-10.4h6.5v10.4zm11.7 29.7H32v-24.5h6.5v24.5zm0-29.7H32v-10.4h6.5v10.4zm11.6 29.7h-6.5v-24.5h6.5v24.5zm0-29.7h-6.5v-10.4h6.5v10.4z"/></svg>